<svg width="1200" height="720" viewBox="0 0 1200 720" fill="none" xmlns="http://www.w3.org/2000/svg">
  <rect width="1200" height="720" fill="#F3EEE4"/>
  <rect x="62" y="68" width="1076" height="584" rx="38" fill="#FFFBF5"/>
  <rect x="122" y="132" width="436" height="438" rx="30" fill="#1D2230"/>
  <rect x="168" y="180" width="344" height="62" rx="18" fill="#F9B15E"/>
  <rect x="168" y="272" width="164" height="164" rx="24" fill="#78A6E3"/>
  <circle cx="432" cy="354" r="84" fill="#EA6F5D"/>
  <path d="M210 324L286 382L210 440V324Z" fill="#F7F6F2"/>
  <path d="M474 324L406 440L354 300L474 324Z" fill="#FFD88B"/>
  <rect x="604" y="184" width="458" height="110" rx="26" fill="#F0DAB4"/>
  <rect x="638" y="220" width="148" height="18" rx="9" fill="#FFFFFF" fill-opacity="0.7"/>
  <rect x="638" y="256" width="244" height="18" rx="9" fill="#FFFFFF" fill-opacity="0.55"/>
  <rect x="604" y="336" width="458" height="198" rx="28" fill="#D4E1F6"/>
  <circle cx="722" cy="434" r="58" fill="#7FA7E2"/>
  <path d="M834 392H968V424H834V392Z" fill="#FFFFFF" fill-opacity="0.7"/>
  <path d="M834 446H1010V478H834V446Z" fill="#FFFFFF" fill-opacity="0.55"/>
  <path d="M834 500H930V532H834V500Z" fill="#FFFFFF" fill-opacity="0.45"/>
</svg>
