<svg width="1200" height="720" viewBox="0 0 1200 720" fill="none" xmlns="http://www.w3.org/2000/svg">
  <rect width="1200" height="720" fill="#F3E6D8"/>
  <rect x="66" y="72" width="1068" height="576" rx="36" fill="#FFF7EE"/>
  <rect x="110" y="130" width="980" height="90" rx="24" fill="#E8D3C0"/>
  <rect x="146" y="168" width="122" height="18" rx="9" fill="#FFFFFF" fill-opacity="0.7"/>
  <rect x="306" y="168" width="86" height="18" rx="9" fill="#FFFFFF" fill-opacity="0.55"/>
  <rect x="446" y="168" width="134" height="18" rx="9" fill="#FFFFFF" fill-opacity="0.55"/>
  <rect x="220" y="410" width="760" height="168" rx="24" fill="#CFAC85"/>
  <rect x="302" y="300" width="180" height="240" rx="34" fill="#8C523D"/>
  <rect x="340" y="244" width="106" height="72" rx="18" fill="#B47057"/>
  <rect x="334" y="344" width="116" height="88" rx="24" fill="#F6E5D7"/>
  <rect x="332" y="456" width="120" height="32" rx="16" fill="#F9ECDC"/>
  <rect x="620" y="316" width="138" height="224" rx="28" fill="#DDA47A"/>
  <circle cx="690" cy="390" r="38" fill="#FFF4E7"/>
  <rect x="806" y="290" width="86" height="250" rx="28" fill="#EED8C5"/>
  <rect x="790" y="248" width="120" height="58" rx="20" fill="#C78E67"/>
  <path d="M612 118L680 170" stroke="#FFFFFF" stroke-opacity="0.45" stroke-width="16" stroke-linecap="round"/>
  <path d="M732 116L800 170" stroke="#FFFFFF" stroke-opacity="0.45" stroke-width="16" stroke-linecap="round"/>
</svg>
